<svg version="1.2" xmlns="http://www.w3.org/2000/svg" viewBox="0 0 343 296" width="343" height="296">
	<title>1-svg</title>
	<defs>
		<clipPath clipPathUnits="userSpaceOnUse" id="cp1">
			<path d="m-8-87c0-5.52 4.48-10 10-10h355c5.52 0 10 4.48 10 10v373c0 5.52-4.48 10-10 10h-355c-5.52 0-10-4.48-10-10z"/>
		</clipPath>
		<linearGradient id="g1" x1="211.7" y1="30" x2="211.7" y2="50.9" gradientUnits="userSpaceOnUse">
			<stop offset="0" stop-color="#ffffff" stop-opacity=".29"/>
			<stop offset="1" stop-color="#ffffff" stop-opacity=".06"/>
		</linearGradient>
		<linearGradient id="g2" x1="33.6" y1="145" x2="33.6" y2="165.9" gradientUnits="userSpaceOnUse">
			<stop offset="0" stop-color="#ffffff" stop-opacity=".29"/>
			<stop offset="1" stop-color="#ffffff" stop-opacity=".06"/>
		</linearGradient>
		<linearGradient id="g3" x1="281.5" y1="121.5" x2="179" y2="201.5" gradientUnits="userSpaceOnUse">
			<stop offset="0" stop-color="#ffffff" stop-opacity=".15"/>
			<stop offset="1" stop-color="#ffffff" stop-opacity=".17"/>
		</linearGradient>
		<clipPath clipPathUnits="userSpaceOnUse" id="cp2">
			<path d="m317.8 199.11h-131.28c-6.66 0-12.08-5.41-12.08-12.07v-80.13h155.44v80.13c0 6.66-5.42 12.07-12.08 12.07zm-142.84-91.69v79.62c0 6.38 5.18 11.56 11.56 11.56h131.28c6.38 0 11.57-5.19 11.57-11.56v-79.62z"/>
		</clipPath>
		<linearGradient id="g4" x1="167.5" y1="183" x2="167.5" y2="190" gradientUnits="userSpaceOnUse">
			<stop offset="0" stop-color="#ffffff" stop-opacity="1"/>
			<stop offset="1" stop-color="#ffffff" stop-opacity="0"/>
		</linearGradient>
	</defs>
	<style>
		.s0 { fill: #ffffff } 
		.s1 { fill: url(#g1) } 
		.s2 { fill: url(#g2) } 
		.s3 { opacity: .2;fill: #ffffff } 
		.s4 { opacity: .7;fill: url(#g3) } 
		.s5 { opacity: .1;fill: #ffffff } 
		.s6 { opacity: .2;fill: #d1d1ff } 
		.s7 { opacity: .4;fill: #ffffff } 
		.s8 { fill: #ffa121 } 
		.s9 { fill: #ff6150 } 
		.s10 { fill: #072448 } 
		.s11 { fill: #f8aa4b } 
		.s12 { fill: #9192ff } 
		.s13 { fill: #ffbc96 } 
		.s14 { fill: #d28572 } 
		.s15 { fill: #041427 } 
		.s16 { fill: #1b1b43 } 
		.s17 { fill: #d1d1ff } 
		.s18 { opacity: .3;fill: #1b1b43 } 
		.s19 { opacity: .6;fill: #ffffff } 
		.s20 { fill: url(#g4) } 
		.s21 { opacity: .2;fill: #fe5b52 } 
		.s22 { fill: #c5c5ff } 
	</style>
	<g id="Clip-Path" clip-path="url(#cp1)">
		<g id="Layer">
			<path id="Layer" class="s0" d="m93 183.7l-0.4-0.4 2.3-2.1 0.3 0.3zm4.4-4.2l-0.3-0.4q1.1-1 2.1-2.1l0.4 0.3q-1.1 1.1-2.2 2.2zm4.3-4.4l-0.4-0.4q1-1.1 2.1-2.3l0.3 0.4q-1 1.1-2 2.3zm4-4.7l-0.4-0.3q1-1.2 1.9-2.4l0.4 0.3q-0.9 1.3-1.9 2.4zm3.8-4.8l-0.4-0.3q0.9-1.2 1.8-2.5l0.4 0.3q-0.9 1.3-1.8 2.5zm3.6-5l-0.5-0.3q0.9-1.3 1.7-2.6l0.4 0.3q-0.8 1.3-1.6 2.6zm27.9-3.6c-0.9 0-1.9-0.1-2.7-0.5l0.2-0.5c0.8 0.4 1.7 0.5 2.5 0.5q0.2 0 0.4 0v0.5c-0.1 0-0.3 0-0.4 0zm3.4-0.8l-0.2-0.5c0.8-0.5 1.5-1.2 2-2l0.5 0.2c-0.6 1-1.4 1.7-2.3 2.3zm-28-0.8l-0.4-0.2q0.8-1.3 1.5-2.7l0.5 0.3q-0.8 1.3-1.6 2.6zm19.3-0.7q-1-1.1-1.7-2.6l0.5-0.2q0.6 1.4 1.6 2.5zm11.8-3.9h-0.5v-0.1c0-0.8-0.2-1.5-0.5-2.2q-0.1-0.2-0.2-0.5l0.4-0.2q0.2 0.2 0.3 0.5c0.3 0.7 0.5 1.5 0.5 2.4zm-27.8-0.6l-0.4-0.3q1-1.2 2.2-2.2l0.3 0.4q-1.1 1-2.1 2.1zm13.5-1.2q-0.1-0.8-0.1-1.5 0-0.8 0.1-1.7l0.5 0.1q-0.1 0.8-0.1 1.6 0 0.7 0.1 1.4zm-8.9-2.7l-0.3-0.4q1.3-0.8 2.8-1.4l0.2 0.4q-1.5 0.7-2.7 1.4zm20-0.5q-1.1-0.8-2.6-1.4l0.2-0.5q1.5 0.6 2.7 1.5zm-14.5-1.9l-0.1-0.4q1.5-0.5 3-0.6l0.1 0.5q-1.5 0.1-3 0.5zm9-0.4q-1.4-0.3-3-0.3v-0.5q1.6 0 3.1 0.3zm-4.4-0.5l-0.4-0.2q0.5-1.4 1.3-2.8l0.4 0.3q-0.8 1.3-1.3 2.7zm3.2-5.1l-0.4-0.3q0.2-0.3 0.4-0.5 0.9-0.9 1.9-1.6l0.3 0.4q-1 0.7-1.8 1.5-0.2 0.3-0.4 0.5zm4.8-3.6l-0.2-0.4q1.4-0.7 2.9-1.2l0.1 0.5q-1.4 0.5-2.8 1.1zm5.8-1.8l-0.2-0.5q1.5-0.4 3-0.8l0.1 0.5q-1.4 0.4-2.9 0.8zm5.9-1.7l-0.2-0.5q1.5-0.5 2.9-1l0.2 0.5q-1.4 0.5-2.9 1zm5.8-2l-0.2-0.5q1.4-0.6 2.8-1.2l0.2 0.5q-1.4 0.6-2.8 1.2zm5.6-2.5l-0.2-0.4 2.7-1.4 0.3 0.5zm5.5-2.7l-0.2-0.5 2.7-1.3 0.2 0.5zm5.6-2.7l-0.3-0.5 2.8-1.3 0.2 0.4zm5.5-2.6l-0.2-0.5 2.8-1.3 0.2 0.4zm5.5-2.7l-0.2-0.4 2.7-1.4 0.2 0.5z"/>
			<path id="Layer" class="s1" d="m178.1 50.6q0 0.1 0.1 0.3h67.1c-0.1-5.5-5-10-10.9-10-1.9 0-3.7 0.5-5.2 1.3 0.1-4.3-2-8.5-5.8-10.7-5.7-3.3-13.2-1-16.7 5.1-1.1 1.8-1.7 3.8-1.8 5.7-2.8-1.2-6.2-2-10-2-9.3 0-16.8 4.6-16.8 10.3z"/>
			<path id="Layer" class="s2" d="m67.2 165.6q0 0.2 0 0.3h-67.2c0.2-5.5 5-10 10.9-10 1.9 0 3.7 0.5 5.2 1.3 0-4.3 2-8.5 5.8-10.7 5.8-3.3 13.3-1 16.8 5.1 1 1.8 1.6 3.8 1.7 5.7 2.8-1.2 6.3-2 10-2 9.3 0 16.8 4.6 16.8 10.3z"/>
			<path id="Layer" class="s3" d="m174.7 187c0 6.6 5.3 11.9 11.8 11.9h131.3c6.5 0 11.8-5.3 11.8-11.9v-79.8h-154.9z"/>
			<path id="Layer" class="s4" d="m278.4 109.7c-43 40.5-73.5 51.4-112 55.3l-2.5 40.9 40.3 13.7c35.3-1 69.1-52 90-95.8z"/>
			<path id="Layer" class="s5" d="m286.5 110.7c-4.2 5.4-10.4 10.7-17.7 17.9l9.9-4.7c-1.2 2.2-3 5.4-4 6.8 2.3-1.2 6-3.9 7.2-5.3 0 1.9-2.2 5.2-3.1 7 5.4-5.2 10.2-11.5 11.9-16.9z"/>
			<path id="Layer" class="s6" d="m222.2 138.8c0.1 1.3 0 3.4-1.3 4.2-2.1 1.2-3.8-1.8-4.6-3.3-0.9-1.8-0.6-4.1 1.5-4.9 2.8-1 4.3 1.6 4.4 4z"/>
			<path id="Layer" class="s6" d="m210.9 126.1c1 0 1.8-0.8 1.8-1.8 0-1-0.8-1.8-1.8-1.8-1 0-1.8 0.8-1.8 1.8 0 1 0.8 1.8 1.8 1.8z"/>
			<path id="Layer" fill-rule="evenodd" class="s0" d="m317.8 199.1h-131.3c-6.6 0-12.1-5.4-12.1-12.1v-80.1h155.5v80.1c0 6.7-5.4 12.1-12.1 12.1zm-142.8-91.7v79.6c0 6.4 5.1 11.6 11.5 11.6h131.3c6.4 0 11.6-5.2 11.6-11.6v-79.6z"/>
			<g id="Clip-Path" clip-path="url(#cp2)">
				<g id="Layer">
				</g>
			</g>
			<path id="Layer" class="s3" d="m317.8 76.2h-131.3c-6.5 0-11.8 5.3-11.8 11.8v19.2h154.9v-19.2c0-6.5-5.3-11.8-11.8-11.8z"/>
			<path id="Layer" fill-rule="evenodd" class="s0" d="m329.9 107.4h-155.5v-19.4c0-6.6 5.5-12 12.1-12h131.3c6.7 0 12.1 5.4 12.1 12zm-154.9-0.5h154.4v-18.8c0-6.4-5.2-11.6-11.6-11.6h-131.3c-6.4 0-11.5 5.2-11.5 11.6z"/>
			<path id="Layer" class="s7" d="m190.3 98.2c3.6 0 6.5-2.9 6.5-6.5 0-3.6-2.9-6.5-6.5-6.5-3.6 0-6.5 2.9-6.5 6.5 0 3.6 2.9 6.5 6.5 6.5z"/>
			<path id="Layer" class="s7" d="m209.4 98.2c3.6 0 6.5-2.9 6.5-6.5 0-3.6-2.9-6.5-6.5-6.5-3.6 0-6.5 2.9-6.5 6.5 0 3.6 2.9 6.5 6.5 6.5z"/>
			<path id="Layer" fill-rule="evenodd" class="s7" d="m209.4 98.4c-3.7 0-6.7-3-6.7-6.7 0-3.7 3-6.7 6.7-6.7 3.7 0 6.7 3 6.7 6.7 0 3.7-3 6.7-6.7 6.7zm0-12.9c-3.4 0-6.2 2.8-6.2 6.2 0 3.4 2.8 6.2 6.2 6.2 3.4 0 6.2-2.8 6.2-6.2 0-3.4-2.8-6.2-6.2-6.2z"/>
			<path id="Layer" class="s7" d="m258.7 97.9h-25.8c-3.4 0-6.2-2.8-6.2-6.2 0-3.4 2.8-6.2 6.2-6.2h25.8c3.4 0 6.2 2.8 6.2 6.2 0 3.4-2.8 6.2-6.2 6.2z"/>
			<path id="Layer" fill-rule="evenodd" class="s7" d="m258.7 98.1h-25.8c-3.5 0-6.4-2.9-6.4-6.4 0-3.6 2.9-6.5 6.4-6.5h25.8c3.6 0 6.5 2.9 6.5 6.5 0 3.5-2.9 6.4-6.5 6.4zm-25.8-12.3c-3.2 0-5.9 2.6-5.9 5.9 0 3.3 2.7 5.9 5.9 5.9h25.8c3.3 0 6-2.6 6-5.9 0-3.3-2.7-5.9-6-5.9z"/>
			<path id="Layer" class="s8" d="m284.5 110.2c-7 8.3-17.6 16.2-30 26.9l17-6.9c-2.1 3.5-5.1 8.3-6.8 10.4 3.9-1.8 10.2-5.8 12.3-7.9 0 2.9-3.6 7.8-5.1 10.5 9-7.7 17.3-17.2 19.9-25.5z"/>
			<path id="Layer" class="s9" d="m311.4 62.1c-10.4 9.1-28.2 2.8-33.8 10.1l15.9 12.5z"/>
			<path id="Layer" class="s9" d="m277.6 72.2c-0.7 2.1-0.3 4.4 1.2 6.1l11.2 12.9 3.5-6.5z"/>
			<path id="Layer" class="s9" d="m334.8 80.7c-6.4 12.1 3.7 28.1-2 35.1l-15.9-12.5z"/>
			<path id="Layer" class="s9" d="m332.8 115.8c-1.9 1.3-4.3 1.4-6.3 0.4l-15.1-8 5.5-4.9z"/>
			<path id="Layer" class="s10" d="m342.9 46.5l-14.1 5.2 12.3 9.8z"/>
			<path id="Layer" class="s11" d="m341.1 61.5c-2 22.3-18.5 43.1-38.5 54.7l-18.3-14.5c7.7-24.1 21.9-41.3 44.5-50z"/>
			<path id="Layer" class="s9" d="m284.3 101.7l-7.9 5.5 22.7 18 3.5-9z"/>
			<path id="Layer" class="s0" d="m323.5 79.5c4.7 0 8.4-3.8 8.4-8.4 0-4.7-3.7-8.5-8.4-8.5-4.7 0-8.5 3.8-8.5 8.5 0 4.6 3.8 8.4 8.5 8.4z"/>
			<path id="Layer" class="s12" d="m324.1 77.1v-0.6q0.7 0 1.4-0.3l0.2 0.5q-0.8 0.3-1.6 0.4zm-1.6-0.1q-0.8-0.1-1.5-0.4l0.2-0.5q0.7 0.3 1.4 0.4zm4.5-1.1l-0.3-0.4q0.6-0.4 1.1-1l0.4 0.3q-0.5 0.6-1.2 1.1zm-7.4-0.2q-0.6-0.5-1.1-1.2l0.4-0.3q0.5 0.6 1 1.1zm9.2-1.9l-0.4-0.2q0.3-0.6 0.5-1.4l0.5 0.1q-0.2 0.8-0.6 1.5zm-11-0.7q-0.3-0.7-0.3-1.5l0.5-0.1q0 0.8 0.3 1.5zm11.2-2.4q-0.1-0.7-0.3-1.4l0.5-0.2q0.2 0.8 0.3 1.6zm-11-0.7l-0.5-0.1q0.2-0.8 0.5-1.5l0.5 0.2q-0.3 0.6-0.5 1.4zm10.1-2.1q-0.4-0.6-1-1.1l0.4-0.4q0.6 0.6 1 1.2zm-8.8-0.5l-0.4-0.4q0.5-0.6 1.2-1l0.3 0.4q-0.6 0.4-1.1 1zm6.7-1.4q-0.7-0.3-1.4-0.5l0.1-0.5q0.8 0.2 1.5 0.6zm-4.3-0.3l-0.2-0.5q0.8-0.3 1.6-0.3v0.5q-0.7 0-1.4 0.3z"/>
			<path id="Layer" class="s10" d="m281.7 124.2l-0.4-0.3c-0.6-0.5-0.7-1.4-0.2-2l15.9-20c0.5-0.6 1.3-0.7 1.9-0.3l0.4 0.4c0.6 0.4 0.7 1.3 0.2 1.9l-15.8 20.1c-0.5 0.6-1.4 0.7-2 0.2z"/>
			<path id="Layer" class="s3" d="m304.3 278.2h-65.2c-4.2 0-7.6-3.3-7.6-7.5v-41.7c0-4.2 3.4-7.5 7.6-7.5h65.2c4.1 0 7.5 3.3 7.5 7.5v41.7c0 4.2-3.4 7.5-7.5 7.5z"/>
			<path id="Layer" class="s7" d="m254.2 254.6h-8.7v17.7h8.7z"/>
			<path id="Layer" class="s7" d="m268.7 255.2h-8.7v17.1h8.7z"/>
			<path id="Layer" class="s7" d="m283.3 246.3h-8.7v26h8.7z"/>
			<path id="Layer" class="s7" d="m297.9 238.6h-8.7v33.7h8.7z"/>
			<path id="Layer" class="s7" d="m295 229.5h-46.6v2h46.6z"/>
			<path id="Layer" class="s9" d="m106.3 163c-1.5-5.1-4.6-9.6-8.9-12.7l-1.7-1.3 1.5 30.3 11.3-8.8z"/>
			<path id="Layer" class="s13" d="m142.7 199.6l-2.5-4.9c-0.7-1.2-1.8-2.1-3.1-2.5l-7.4-2.1-19.1-12.1-2.1-7.5-11.3 8.8 0.1 2.1c0.2 4.3 2.8 8 6.7 9.7l18.5 8 8.8 0.2c2.8 1 3.8 3.4 5.5 2.5 0.7-0.3-1.9-4.5-1.9-4.5l4.3 4.7z"/>
			<path id="Layer" class="s14" d="m110.9 178.2l-0.5-0.4-2.5 2.9 0.5 0.4z"/>
			<path id="Layer" class="s15" d="m109.6 211.9l13.8-1.2c9.1-0.8 16.9 6.5 17.3 16l3.2 68.2-19.1 0.6z"/>
			<path id="Layer" class="s16" d="m126.3 294.9l0.6 18.8h28.3l-14-11.6-0.8-9.1z"/>
			<path id="Layer" class="s17" d="m119.9 294.9l0.5 18.8h28.4l-14-11.6-0.9-9.1z"/>
			<path id="Layer" class="s10" d="m140.9 296.7h-23.4l-16.7-51.4-2.3-7.1-33.4-0.2c-2.1 0-4-1-5.7-2.4-3.6-3-5.2-7.7-4.5-12.3l2.9-20.9 49.6 6.5c9.4 1.2 17 8.2 18.9 17.5z"/>
			<path id="Layer" class="s16" d="m105.4 238.2l-4.6 7.1-2.3-7.1z"/>
			<path id="Layer" class="s9" d="m99.2 198.6q-0.3 1.5-0.7 3l-1.8 7.1-23.1-0.9-16.7-0.7c-4.4-0.2-7.6-4.3-6.7-8.6l7.8-37.4c1-6.4 6.1-11.3 12.5-11.9l19.1-2 6.1 1.8c6 3.2 6 9 6.3 12.9 1.3 16.7-0.3 26.8-2.8 36.7z"/>
			<path id="Layer" class="s18" d="m83.5 197.5c-0.2 0.9 15.2 3.1 15 4.1l-1.8 7.1-23.1-0.9c-8.1-6.1-11.1-19.4-14.1-36z"/>
			<path id="Layer" class="s16" d="m78.9 158c1.1 1.1 2.2 2.1 3.5 2.8 1.3 0.7 2.7 1.2 4.1 1.4 1.5 0.2 3 0 4.2-0.6 1.3-0.7 2.1-2 2.3-3.5h0.2c0 0.8-0.2 1.6-0.6 2.3-0.3 0.6-0.9 1.2-1.6 1.6-1.4 0.8-3 0.9-4.5 0.8-1.6-0.3-3-0.8-4.3-1.6-1.4-0.8-2.5-1.8-3.4-3z"/>
			<path id="Layer" class="s16" d="m102.5 180.9l-0.4-0.1c0.4-5.9 0-13.1-1.3-21.5h0.4c1.3 8.4 1.7 15.6 1.3 21.6z"/>
			<path id="Layer" class="s16" d="m141.8 201.6h-21.7v4.3h21.7z"/>
			<path id="Layer" class="s19" d="m179.7 205.5h-43.7l20.1-38.5h43.7z"/>
			<path id="Layer" class="s20" d="m167.5 190c-1.9 0-3.5-1.6-3.5-3.5 0-1.9 1.6-3.5 3.5-3.5 1.9 0 3.5 1.6 3.5 3.5 0 1.9-1.6 3.5-3.5 3.5z"/>
			<path id="Layer" class="s16" d="m83.8 116.5c-5.2-5.1-14.8-2.9-14.7 5.5-10.5 2.8-11.1 14.4-6.9 20.3l3.7 0.3 0.8-4.3 2.1 4.4 10.3 0.6z"/>
			<path id="Layer" class="s13" d="m92.3 135.4v16.1q0 0.2 0 0.4c-0.2 3.4-3.5 5.7-6.7 4.9-4.9-1.3-8.2-5.7-8.2-10.7l0.1-10.7z"/>
			<path id="Layer" class="s16" d="m92.3 142.3v9.2q0 0.2 0 0.4c-4.3-0.7-9.3-5.7-10.5-11.1z"/>
			<path id="Layer" class="s13" d="m101.1 136.6c-0.3 1.2-0.6 2.6-1 3.8-1.2 4.1-3.6 7.5-7.7 6.9-9.7-1.4-15.1-11.4-15.1-11.4l6.6-7.6 4.5-6 13.4 5.8c0 0 0 4-0.7 8.5z"/>
			<path id="Layer" class="s16" d="m80.1 133.3c4.3-0.1 7.6-2.3 9-8.5 0 0 10 8.6 14.8 4 4.1-3.8-2.8-12.7-14.3-13.7-4.2-0.4-8.3 0.9-11.6 3.5-5.6 4.5-6.1 14.9-0.9 18.5z"/>
			<path id="Layer" class="s8" d="m75.1 122.5c-0.2-1 0-2.1 0.4-3.1 0.5-1 1.2-1.8 2-2.5 0.9-0.6 1.8-1.1 2.9-1.3 1-0.2 2.1-0.2 3.1 0.2-1 0.3-1.9 0.7-2.7 1.1q-1.2 0.6-2.2 1.4-1.1 0.8-1.9 1.8c-0.6 0.7-1.1 1.5-1.6 2.4z"/>
			<path id="Layer" class="s13" d="m80.3 137.7c1.8-0.6 2.5-2.9 1.6-4.9-0.8-2.1-2.8-3.2-4.5-2.5-1.8 0.7-2.5 2.9-1.6 4.9 0.8 2.1 2.8 3.2 4.5 2.5z"/>
			<path id="Layer" class="s16" d="m78.9 136.2c0-0.7 0-1.4-0.2-2-0.2-0.6-0.6-1.2-1-1.7l0.1-0.2c0.7 0.3 1.2 1 1.5 1.7 0.2 0.8 0.1 1.6-0.2 2.3z"/>
			<path id="Layer" class="s16" d="m93.9 135.2c0.5 0 0.9-0.5 0.9-1.1 0-0.6-0.4-1.1-0.9-1.1-0.6 0-1 0.5-1 1.1 0 0.6 0.4 1.1 1 1.1z"/>
			<path id="Layer" class="s16" d="m99 135.8c0.5 0 1-0.4 1-0.9 0.1-0.5-0.2-1-0.7-1.1-0.5 0-0.9 0.4-1 0.9-0.1 0.5 0.3 1 0.7 1.1z"/>
			<path id="Layer" class="s16" d="m94.8 131.3c0 0.5-0.8 0.6-2 0.6-1.2 0-2 0.4-2 0.1 0-0.3 0.8-1.2 2-1.4 1.3-0.2 2 0.1 2 0.7z"/>
			<path id="Layer" class="s16" d="m98.6 131.8c0 0.5 0.6 0.6 1.5 0.8 0.8 0.1 1.4 0.6 1.5 0.3 0-0.3-0.6-1.3-1.4-1.6-0.9-0.3-1.4-0.1-1.6 0.5z"/>
			<path id="Layer" class="s16" d="m97.2 135.8q0.4 0.4 0.8 0.8l0.4 0.4c0.1 0.1 0.2 0.2 0.4 0.4q0.1 0.2 0.1 0.4 0 0.3-0.1 0.4c-0.1 0.3-0.3 0.4-0.5 0.5-0.3 0.2-0.7 0.3-1.1 0.4l-0.1-0.2c0.4-0.2 0.7-0.4 0.9-0.6 0.1-0.1 0.2-0.2 0.3-0.3 0-0.1 0-0.2 0-0.3-0.2-0.2-0.5-0.5-0.7-0.8-0.2-0.3-0.5-0.6-0.6-1z"/>
			<path id="Layer" class="s16" d="m92.3 139.4c0.6 0.7 1.2 1.3 1.9 1.7 0.8 0.5 1.6 0.6 2.5 0.5l0.1 0.2c-0.5 0.2-0.9 0.3-1.4 0.3-0.5-0.1-1-0.2-1.4-0.4-0.9-0.5-1.5-1.3-1.9-2.1z"/>
			<path id="Layer" class="s21" d="m88.7 138.8c1.4 0 2.5-1.1 2.5-2.4 0-1.3-1.1-2.4-2.5-2.4-1.3 0-2.4 1.1-2.4 2.4 0 1.3 1.1 2.4 2.4 2.4z"/>
			<path id="Layer" class="s21" d="m101.1 136.6c-0.3 1.2-0.6 2.6-1 3.8-0.3-0.4-0.6-1-0.6-1.6 0-1 0.7-1.9 1.6-2.2z"/>
			<path id="Layer" class="s9" d="m73.5 165.1l-14 6.7 4.4 10.4 14.6-6.8z"/>
			<path id="Layer" class="s22" d="m125.2 201.1c-0.4-0.2-0.6-0.3-0.6-0.3l0.1-0.3c0 0 0.3 0.2 0.6 0.4z"/>
			<path id="Layer" class="s13" d="m131 202.6c-0.5 0.9-3.9-0.7-5.5-1.5 1.2 0.7 3.4 2 2.4 2.8-0.8 0.6-2.5-0.7-8-3 0.8 0.4 5.8 2.8 4.5 3.7-1.3 1-7.2-1.2-7.2-1.2l-5.1 2.7h-5.8l-21.1 0.2q-2 0-3.9-0.5c-2.5-0.7-4.8-1.9-6.8-3.6q-1.9-1.6-3.3-3.6-1-1.6-1.7-3.3l-5.6-13.1 14.6-6.8 7.7 15.5 25.2 5.5 7-1.8c1.5-0.4 3.6 0.3 5 1.1 3.2 2 8 6 7.6 6.9z"/>
			<path id="Layer" class="s21" d="m81.7 203.6q0 1.2-0.4 2.2c-2.5-0.7-4.8-1.9-6.8-3.6q-1.9-1.6-3.3-3.6c1.1-0.9 2.5-1.4 4-1.4 3.6 0 6.5 2.8 6.5 6.4z"/>
			<path id="Layer" class="s14" d="m111.3 196.3q2.6-0.9 5.4-1.5c0.9-0.2 1.8-0.3 2.7-0.4q0.7 0 1.4 0.1 0.4 0 0.7 0.1 0.4 0.1 0.7 0.3c1.7 0.7 3.2 1.9 4.6 3q2.2 1.7 4.2 3.7v0.1q0.1 0.4-0.1 0.8c-0.1 0.1-0.2 0.2-0.3 0.3q-0.2 0.1-0.4 0.1c-0.5 0.1-0.9 0-1.3-0.1-0.8-0.2-1.5-0.6-2.3-1q-1.1-0.5-2.1-1.2c-0.7-0.4-1.3-0.9-2-1.3l0.3-0.5c1.2 0.7 2.3 1.5 3.5 2.3 0.5 0.4 1.1 0.9 1.5 1.5q0.2 0.2 0.3 0.5 0.1 0.1 0.1 0.3 0 0.2-0.1 0.4c-0.2 0.2-0.4 0.3-0.6 0.4q-0.3 0-0.6 0h-0.1l-6.4-2.6 0.2-0.5c1 0.5 2 1 2.9 1.6 0.5 0.3 1 0.6 1.3 1.2 0.1 0.1 0.1 0.3 0 0.5 0 0.2-0.2 0.3-0.3 0.4-0.3 0.1-0.6 0.2-0.9 0.2-1.2 0-2.2-0.2-3.3-0.5q-1.6-0.4-3.1-1l0.1-0.2q1.5 0.5 3.1 0.9c1 0.2 2.1 0.5 3.2 0.4 0.5 0 1.1-0.2 0.8-0.6-0.2-0.3-0.7-0.7-1.1-1-0.9-0.5-1.9-1-2.9-1.4l0.2-0.5 6.4 2.6h-0.1q0.2 0 0.4-0.1c0.2 0 0.3-0.1 0.3-0.1 0.1-0.1 0-0.4-0.2-0.6-0.4-0.5-0.9-0.9-1.5-1.3-1.1-0.9-2.2-1.6-3.4-2.3l0.3-0.5c0.7 0.4 1.3 0.9 2 1.3q1 0.7 2.1 1.2c0.7 0.4 1.4 0.7 2.1 0.9 0.4 0.1 0.8 0.2 1.1 0.2l0.1-0.1q0.1 0 0.1 0c0.1 0 0.1-0.1 0.1-0.1 0.1-0.1 0.1-0.3 0.1-0.4l0.1 0.2q-2-2-4.1-3.7c-1.4-1.1-2.9-2.3-4.5-3l-0.6-0.3q-0.3 0-0.6-0.1-0.7-0.1-1.4-0.1-1.3 0.1-2.7 0.4-2.7 0.5-5.3 1.3z"/>
			<path id="Layer" class="s16" d="m64 182.4l-0.2-0.4 14.5-6.7-6.1-14.1 0.4-0.2 6.2 14.5z"/>
			<path id="Layer" class="s16" d="m66.1 244h-0.8v66h0.8z"/>
			<path id="Layer" class="s11" d="m84.1 246.9h-36.9c-2.5 0-4.5-2-4.5-4.5 0-2.5 2-4.5 4.5-4.5h36.9c2.5 0 4.6 2 4.6 4.5 0 2.5-2.1 4.5-4.6 4.5z"/>
			<path id="Layer" class="s16" d="m175.7 313.7l-65.4-98.7-0.6 0.4 65.4 98.7z"/>
			<path id="Layer" class="s16" d="m175.7 215.4l-0.6-0.4-65.4 98.6 0.6 0.4z"/>
			<path id="Layer" class="s3" d="m200 205.9h-114.6v8.7h114.6z"/>
			<path id="Layer" class="s3" d="m297.1 52.1c14.4 0 26.1-11.7 26.1-26 0-14.4-11.7-26.1-26.1-26.1-14.3 0-26 11.7-26 26.1 0 14.3 11.7 26 26 26z"/>
			<path id="Layer" class="s16" d="m297.2 26.6l-14.5-11.4 0.5-0.6 13.9 11 7.8-6.6 0.5 0.6z"/>
			<path id="Layer" class="s0" d="m43.6 91h-13.2c-2.2 0-3.9 1.7-3.9 3.9v13.2c0 2.1 1.7 3.9 3.9 3.9h9.4l4.1 5.6v-5.7c2-0.1 3.5-1.8 3.5-3.8v-13.2c0-2.2-1.7-3.9-3.8-3.9z"/>
			<path id="Layer" fill-rule="evenodd" class="s11" d="m44.1 118.4l-4.4-6.2h-9.3c-2.3 0-4.2-1.8-4.2-4.1v-13.2c0-2.3 1.9-4.1 4.2-4.1h13.2c2.3 0 4.1 1.8 4.1 4.1v13.2c0 2.1-1.6 3.8-3.6 4.1zm-13.7-27.1c-2 0-3.6 1.6-3.6 3.6v13.2c0 2 1.6 3.6 3.6 3.6h9.5l3.7 5.1v-5.1h0.2c1.9-0.1 3.4-1.7 3.4-3.6v-13.2c0-2-1.6-3.6-3.6-3.6z"/>
			<path id="Layer" class="s11" d="m36.7 108.3l-5.3-7.6 1.3-0.9 3.9 5.6 5.8-10.5 1.4 0.8z"/>
		</g>
	</g>
	<path id="Layer" class="s3" d="m182 129c0-2.2 1.8-4 4-4h68c2.2 0 4 1.8 4 4 0 2.2-1.8 4-4 4h-68c-2.2 0-4-1.8-4-4z"/>
	<path id="Layer" class="s3" d="m182 142c0-2.2 1.8-4 4-4h58c2.2 0 4 1.8 4 4 0 2.2-1.8 4-4 4h-58c-2.2 0-4-1.8-4-4z"/>
	<path id="Layer" class="s3" d="m182 160c0-1.1 0.9-2 2-2h135c1.1 0 2 0.9 2 2 0 1.1-0.9 2-2 2h-135c-1.1 0-2-0.9-2-2z"/>
	<path id="Layer" class="s3" d="m208 183c0-1.1 0.9-2 2-2h109c1.1 0 2 0.9 2 2 0 1.1-0.9 2-2 2h-109c-1.1 0-2-0.9-2-2z"/>
	<path id="Layer" class="s3" d="m208 172c0-1.1 0.9-2 2-2h109c1.1 0 2 0.9 2 2 0 1.1-0.9 2-2 2h-109c-1.1 0-2-0.9-2-2z"/>
</svg>