<svg width="154" height="113" viewBox="0 0 154 113" fill="none" xmlns="http://www.w3.org/2000/svg">
<path d="M22.2777 44.1304C18.7812 43.1628 15.2943 42.1616 11.7822 41.1533C11.3526 41.0299 10.8372 40.1578 10.8958 39.6677C11.0516 38.5538 11.8106 38.482 12.5085 38.7186C12.9537 38.8827 13.4434 38.987 13.8982 39.1176C18.7844 40.4843 23.6767 41.9251 28.5918 43.1914C34.2143 44.6609 39.8656 46.03 45.5266 47.3656C51.6266 48.7911 57.7075 50.2835 63.8652 51.5084C70.6738 52.8476 77.5689 53.8859 84.4159 55.0913C86.8679 55.5056 89.3067 56.061 91.7622 56.3677C94.8434 56.7816 97.9377 57.0545 101.048 57.3681C104.344 57.699 107.666 58.0371 110.991 58.2677C113.697 58.4652 116.441 58.5289 119.179 58.5184C119.621 58.5007 120.367 57.8095 120.616 57.2291C122.724 52.0773 125.295 47.312 128.595 43.1541C132.701 37.9967 137.406 35.3283 142.813 35.0704C145.64 34.9406 147.704 36.0401 149.333 38.4631C152.453 43.1244 150.91 51.2626 146.195 55.0143C142.431 58.0252 138.383 59.3612 134.289 59.9964C131.708 60.4139 129.134 60.6162 126.559 60.8185C125.076 60.9358 122.337 60.4751 121.079 61.9969C120.619 62.5526 120.398 63.322 120.187 64.0579C117.577 73.3383 114.967 82.6186 112.348 91.9324C112.165 92.568 111.964 93.2704 111.548 93.7665C111.132 94.2626 110.439 94.3896 110.14 93.9056C109.923 93.5175 110.046 92.9008 110.165 92.3918C112.536 82.6085 115.306 72.5778 118.348 62.842C118.444 62.5075 118.549 62.1395 118.475 61.8284C118.328 61.3879 117.879 61.3315 117.471 61.323C95.7805 60.8526 74.5522 56.6768 53.705 52.031C46.6063 50.4636 39.5208 48.7552 32.4737 46.9129C29.1035 45.9815 25.6985 45.0763 22.2777 44.1304ZM148.292 48.6643C149.431 44.7913 148.362 40.3206 146.461 38.9418C144.443 37.4934 142.159 37.6344 139.821 38.1579C135.581 39.113 132.112 41.9551 129.081 46.2263C126.726 49.5694 124.721 53.1216 123.098 56.9644C122.636 58.0989 122.834 58.5539 123.814 58.4733C126.493 58.1924 129.149 58.086 131.822 57.731C135.997 57.1917 140.171 56.1814 144.157 53.6327C146.094 52.4144 147.589 50.6351 148.292 48.6643Z" fill="#33BFBF"/>
<path d="M120.209 94.1545C120.715 94.6619 120.566 95.5604 119.905 95.8416C115.601 97.7195 112.857 101.349 109.812 104.639C108.17 106.449 107.095 106.285 106.204 103.965C105.546 102.219 105.224 100.316 104.619 98.5133C103.9 96.3516 103.028 94.2184 102.309 92.0567C102.209 91.7745 102.195 91.4447 102.214 91.1244C102.22 90.4743 102.828 89.997 103.449 90.103C103.927 90.204 104.338 90.2858 104.515 90.5537C105.502 92.2855 106.274 94.1365 106.969 96.0018C107.393 97.1735 107.482 98.5026 107.863 99.6982C108.016 100.176 108.393 100.755 108.818 100.914C109.21 101.062 110.158 100.031 110.402 99.8114C111.072 99.2434 111.751 98.642 112.421 98.074C113.9 96.833 115.403 95.635 116.848 94.3844C117.508 93.8498 118.555 93.6074 119.416 93.6372C119.66 93.6709 119.922 93.8912 120.209 94.1545Z" fill="#33BFBF"/>
</svg>
