<svg width="58" height="32" viewBox="0 0 58 32" fill="none" xmlns="http://www.w3.org/2000/svg">
<path d="M55.9357 4.51849C57.0754 4.51849 57.9993 3.59457 57.9993 2.45486C57.9993 1.31515 57.0754 0.391235 55.9357 0.391235C54.796 0.391235 53.8721 1.31515 53.8721 2.45486C53.8721 3.59457 54.796 4.51849 55.9357 4.51849Z" fill="#62626C"/>
<path d="M42.7121 4.51849C43.8518 4.51849 44.7757 3.59457 44.7757 2.45486C44.7757 1.31515 43.8518 0.391235 42.7121 0.391235C41.5723 0.391235 40.6484 1.31515 40.6484 2.45486C40.6484 3.59457 41.5723 4.51849 42.7121 4.51849Z" fill="#62626C"/>
<path d="M29.4875 4.51849C30.6272 4.51849 31.5511 3.59457 31.5511 2.45486C31.5511 1.31515 30.6272 0.391235 29.4875 0.391235C28.3477 0.391235 27.4238 1.31515 27.4238 2.45486C27.4238 3.59457 28.3477 4.51849 29.4875 4.51849Z" fill="#62626C"/>
<path d="M16.2638 4.51849C17.4035 4.51849 18.3274 3.59457 18.3274 2.45486C18.3274 1.31515 17.4035 0.391235 16.2638 0.391235C15.1241 0.391235 14.2002 1.31515 14.2002 2.45486C14.2002 3.59457 15.1241 4.51849 16.2638 4.51849Z" fill="#62626C"/>
<path d="M3.04018 4.51849C4.1799 4.51849 5.10381 3.59457 5.10381 2.45486C5.10381 1.31515 4.1799 0.391235 3.04018 0.391235C1.90047 0.391235 0.976562 1.31515 0.976562 2.45486C0.976562 3.59457 1.90047 4.51849 3.04018 4.51849Z" fill="#62626C"/>
<path d="M55.9357 18.1497C57.0754 18.1497 57.9993 17.2258 57.9993 16.0861C57.9993 14.9464 57.0754 14.0225 55.9357 14.0225C54.796 14.0225 53.8721 14.9464 53.8721 16.0861C53.8721 17.2258 54.796 18.1497 55.9357 18.1497Z" fill="#62626C"/>
<path d="M42.7121 18.1497C43.8518 18.1497 44.7757 17.2258 44.7757 16.0861C44.7757 14.9464 43.8518 14.0225 42.7121 14.0225C41.5723 14.0225 40.6484 14.9464 40.6484 16.0861C40.6484 17.2258 41.5723 18.1497 42.7121 18.1497Z" fill="#62626C"/>
<path d="M29.4875 18.1497C30.6272 18.1497 31.5511 17.2258 31.5511 16.0861C31.5511 14.9464 30.6272 14.0225 29.4875 14.0225C28.3477 14.0225 27.4238 14.9464 27.4238 16.0861C27.4238 17.2258 28.3477 18.1497 29.4875 18.1497Z" fill="#62626C"/>
<path d="M16.2638 18.1497C17.4035 18.1497 18.3274 17.2258 18.3274 16.0861C18.3274 14.9464 17.4035 14.0225 16.2638 14.0225C15.1241 14.0225 14.2002 14.9464 14.2002 16.0861C14.2002 17.2258 15.1241 18.1497 16.2638 18.1497Z" fill="#62626C"/>
<path d="M3.04018 18.1497C4.1799 18.1497 5.10381 17.2258 5.10381 16.0861C5.10381 14.9464 4.1799 14.0225 3.04018 14.0225C1.90047 14.0225 0.976562 14.9464 0.976562 16.0861C0.976562 17.2258 1.90047 18.1497 3.04018 18.1497Z" fill="#62626C"/>
<path d="M55.9357 31.7817C57.0754 31.7817 57.9993 30.8578 57.9993 29.718C57.9993 28.5783 57.0754 27.6544 55.9357 27.6544C54.796 27.6544 53.8721 28.5783 53.8721 29.718C53.8721 30.8578 54.796 31.7817 55.9357 31.7817Z" fill="#62626C"/>
<path d="M42.7121 31.7817C43.8518 31.7817 44.7757 30.8578 44.7757 29.718C44.7757 28.5783 43.8518 27.6544 42.7121 27.6544C41.5723 27.6544 40.6484 28.5783 40.6484 29.718C40.6484 30.8578 41.5723 31.7817 42.7121 31.7817Z" fill="#62626C"/>
<path d="M29.4875 31.7817C30.6272 31.7817 31.5511 30.8578 31.5511 29.718C31.5511 28.5783 30.6272 27.6544 29.4875 27.6544C28.3477 27.6544 27.4238 28.5783 27.4238 29.718C27.4238 30.8578 28.3477 31.7817 29.4875 31.7817Z" fill="#62626C"/>
<path d="M16.2638 31.7817C17.4035 31.7817 18.3274 30.8578 18.3274 29.718C18.3274 28.5783 17.4035 27.6544 16.2638 27.6544C15.1241 27.6544 14.2002 28.5783 14.2002 29.718C14.2002 30.8578 15.1241 31.7817 16.2638 31.7817Z" fill="#62626C"/>
<path d="M3.04018 31.7817C4.1799 31.7817 5.10381 30.8578 5.10381 29.718C5.10381 28.5783 4.1799 27.6544 3.04018 27.6544C1.90047 27.6544 0.976562 28.5783 0.976562 29.718C0.976562 30.8578 1.90047 31.7817 3.04018 31.7817Z" fill="#62626C"/>
</svg>
