<svg width="26" height="130" viewBox="0 0 26 130" fill="none" xmlns="http://www.w3.org/2000/svg">
<path d="M23.089 4.17798C24.2427 4.17798 25.178 3.24271 25.178 2.08899C25.178 0.935266 24.2427 0 23.089 0C21.9353 0 21 0.935266 21 2.08899C21 3.24271 21.9353 4.17798 23.089 4.17798Z" fill="#62626C"/>
<path d="M23.089 22.135C24.2427 22.135 25.178 21.1997 25.178 20.046C25.178 18.8923 24.2427 17.957 23.089 17.957C21.9353 17.957 21 18.8923 21 20.046C21 21.1997 21.9353 22.135 23.089 22.135Z" fill="#62626C"/>
<path d="M23.089 40.091C24.2427 40.091 25.178 39.1557 25.178 38.002C25.178 36.8483 24.2427 35.913 23.089 35.913C21.9353 35.913 21 36.8483 21 38.002C21 39.1557 21.9353 40.091 23.089 40.091Z" fill="#62626C"/>
<path d="M23.089 58.047C24.2427 58.047 25.178 57.1117 25.178 55.958C25.178 54.8043 24.2427 53.869 23.089 53.869C21.9353 53.869 21 54.8043 21 55.958C21 57.1117 21.9353 58.047 23.089 58.047Z" fill="#62626C"/>
<path d="M23.089 75.513C24.2427 75.513 25.178 74.5777 25.178 73.424C25.178 72.2703 24.2427 71.335 23.089 71.335C21.9353 71.335 21 72.2703 21 73.424C21 74.5777 21.9353 75.513 23.089 75.513Z" fill="#62626C"/>
<path d="M23.089 93.47C24.2427 93.47 25.178 92.5347 25.178 91.381C25.178 90.2273 24.2427 89.292 23.089 89.292C21.9353 89.292 21 90.2273 21 91.381C21 92.5347 21.9353 93.47 23.089 93.47Z" fill="#62626C"/>
<path d="M23.089 111.426C24.2427 111.426 25.178 110.491 25.178 109.337C25.178 108.183 24.2427 107.248 23.089 107.248C21.9353 107.248 21 108.183 21 109.337C21 110.491 21.9353 111.426 23.089 111.426Z" fill="#62626C"/>
<path d="M23.089 129.381C24.2427 129.381 25.178 128.446 25.178 127.292C25.178 126.138 24.2427 125.203 23.089 125.203C21.9353 125.203 21 126.138 21 127.292C21 128.446 21.9353 129.381 23.089 129.381Z" fill="#62626C"/>
<path d="M2.08902 4.17798C3.24274 4.17798 4.17801 3.24271 4.17801 2.08899C4.17801 0.935266 3.24274 0 2.08902 0C0.935297 0 0 0.935266 0 2.08899C0 3.24271 0.935297 4.17798 2.08902 4.17798Z" fill="#62626C"/>
<path d="M2.08902 22.135C3.24274 22.135 4.17801 21.1997 4.17801 20.046C4.17801 18.8923 3.24274 17.957 2.08902 17.957C0.935297 17.957 0 18.8923 0 20.046C0 21.1997 0.935297 22.135 2.08902 22.135Z" fill="#62626C"/>
<path d="M2.08902 40.091C3.24274 40.091 4.17801 39.1557 4.17801 38.002C4.17801 36.8483 3.24274 35.913 2.08902 35.913C0.935297 35.913 0 36.8483 0 38.002C0 39.1557 0.935297 40.091 2.08902 40.091Z" fill="#62626C"/>
<path d="M2.08902 58.047C3.24274 58.047 4.17801 57.1117 4.17801 55.958C4.17801 54.8043 3.24274 53.869 2.08902 53.869C0.935297 53.869 0 54.8043 0 55.958C0 57.1117 0.935297 58.047 2.08902 58.047Z" fill="#62626C"/>
<path d="M2.08902 75.513C3.24274 75.513 4.17801 74.5777 4.17801 73.424C4.17801 72.2703 3.24274 71.335 2.08902 71.335C0.935297 71.335 0 72.2703 0 73.424C0 74.5777 0.935297 75.513 2.08902 75.513Z" fill="#62626C"/>
<path d="M2.08902 93.47C3.24274 93.47 4.17801 92.5347 4.17801 91.381C4.17801 90.2273 3.24274 89.292 2.08902 89.292C0.935297 89.292 0 90.2273 0 91.381C0 92.5347 0.935297 93.47 2.08902 93.47Z" fill="#62626C"/>
<path d="M2.08902 111.426C3.24274 111.426 4.17801 110.491 4.17801 109.337C4.17801 108.183 3.24274 107.248 2.08902 107.248C0.935297 107.248 0 108.183 0 109.337C0 110.491 0.935297 111.426 2.08902 111.426Z" fill="#62626C"/>
<path d="M2.08902 129.381C3.24274 129.381 4.17801 128.446 4.17801 127.292C4.17801 126.138 3.24274 125.203 2.08902 125.203C0.935297 125.203 0 126.138 0 127.292C0 128.446 0.935297 129.381 2.08902 129.381Z" fill="#62626C"/>
</svg>
