<svg width="66" height="96" viewBox="0 0 66 96" fill="none" xmlns="http://www.w3.org/2000/svg">
<path d="M23.089 4.17798C24.2427 4.17798 25.178 3.24271 25.178 2.08899C25.178 0.935266 24.2427 0 23.089 0C21.9353 0 21 0.935266 21 2.08899C21 3.24271 21.9353 4.17798 23.089 4.17798Z" fill="#62626C"/>
<path d="M23.089 22.135C24.2427 22.135 25.178 21.1997 25.178 20.046C25.178 18.8923 24.2427 17.957 23.089 17.957C21.9353 17.957 21 18.8923 21 20.046C21 21.1997 21.9353 22.135 23.089 22.135Z" fill="#62626C"/>
<path d="M23.089 40.0911C24.2427 40.0911 25.178 39.1558 25.178 38.0021C25.178 36.8484 24.2427 35.9131 23.089 35.9131C21.9353 35.9131 21 36.8484 21 38.0021C21 39.1558 21.9353 40.0911 23.089 40.0911Z" fill="#62626C"/>
<path d="M23.089 58.0471C24.2427 58.0471 25.178 57.1119 25.178 55.9581C25.178 54.8044 24.2427 53.8691 23.089 53.8691C21.9353 53.8691 21 54.8044 21 55.9581C21 57.1119 21.9353 58.0471 23.089 58.0471Z" fill="#62626C"/>
<path d="M23.089 75.513C24.2427 75.513 25.178 74.5777 25.178 73.424C25.178 72.2702 24.2427 71.335 23.089 71.335C21.9353 71.335 21 72.2702 21 73.424C21 74.5777 21.9353 75.513 23.089 75.513Z" fill="#62626C"/>
<path d="M23.089 93.47C24.2427 93.47 25.178 92.5347 25.178 91.381C25.178 90.2273 24.2427 89.292 23.089 89.292C21.9353 89.292 21 90.2273 21 91.381C21 92.5347 21.9353 93.47 23.089 93.47Z" fill="#62626C"/>
<path d="M2.08902 4.17798C3.24274 4.17798 4.17801 3.24271 4.17801 2.08899C4.17801 0.935266 3.24274 0 2.08902 0C0.935297 0 0 0.935266 0 2.08899C0 3.24271 0.935297 4.17798 2.08902 4.17798Z" fill="#62626C"/>
<path d="M2.08902 22.135C3.24274 22.135 4.17801 21.1997 4.17801 20.046C4.17801 18.8923 3.24274 17.957 2.08902 17.957C0.935297 17.957 0 18.8923 0 20.046C0 21.1997 0.935297 22.135 2.08902 22.135Z" fill="#62626C"/>
<path d="M2.08902 40.0911C3.24274 40.0911 4.17801 39.1558 4.17801 38.0021C4.17801 36.8484 3.24274 35.9131 2.08902 35.9131C0.935297 35.9131 0 36.8484 0 38.0021C0 39.1558 0.935297 40.0911 2.08902 40.0911Z" fill="#62626C"/>
<path d="M2.08902 58.0471C3.24274 58.0471 4.17801 57.1119 4.17801 55.9581C4.17801 54.8044 3.24274 53.8691 2.08902 53.8691C0.935297 53.8691 0 54.8044 0 55.9581C0 57.1119 0.935297 58.0471 2.08902 58.0471Z" fill="#62626C"/>
<path d="M2.08902 75.513C3.24274 75.513 4.17801 74.5777 4.17801 73.424C4.17801 72.2702 3.24274 71.335 2.08902 71.335C0.935297 71.335 0 72.2702 0 73.424C0 74.5777 0.935297 75.513 2.08902 75.513Z" fill="#62626C"/>
<path d="M2.08902 93.47C3.24274 93.47 4.17801 92.5347 4.17801 91.381C4.17801 90.2273 3.24274 89.292 2.08902 89.292C0.935297 89.292 0 90.2273 0 91.381C0 92.5347 0.935297 93.47 2.08902 93.47Z" fill="#62626C"/>
<path d="M63.089 4.17798C64.2427 4.17798 65.178 3.24271 65.178 2.08899C65.178 0.935266 64.2427 0 63.089 0C61.9353 0 61 0.935266 61 2.08899C61 3.24271 61.9353 4.17798 63.089 4.17798Z" fill="#62626C"/>
<path d="M63.089 22.135C64.2427 22.135 65.178 21.1997 65.178 20.046C65.178 18.8923 64.2427 17.957 63.089 17.957C61.9353 17.957 61 18.8923 61 20.046C61 21.1997 61.9353 22.135 63.089 22.135Z" fill="#62626C"/>
<path d="M63.089 40.0911C64.2427 40.0911 65.178 39.1558 65.178 38.0021C65.178 36.8484 64.2427 35.9131 63.089 35.9131C61.9353 35.9131 61 36.8484 61 38.0021C61 39.1558 61.9353 40.0911 63.089 40.0911Z" fill="#62626C"/>
<path d="M63.089 58.0471C64.2427 58.0471 65.178 57.1119 65.178 55.9581C65.178 54.8044 64.2427 53.8691 63.089 53.8691C61.9353 53.8691 61 54.8044 61 55.9581C61 57.1119 61.9353 58.0471 63.089 58.0471Z" fill="#62626C"/>
<path d="M63.089 75.513C64.2427 75.513 65.178 74.5777 65.178 73.424C65.178 72.2702 64.2427 71.335 63.089 71.335C61.9353 71.335 61 72.2702 61 73.424C61 74.5777 61.9353 75.513 63.089 75.513Z" fill="#62626C"/>
<path d="M63.089 93.47C64.2427 93.47 65.178 92.5347 65.178 91.381C65.178 90.2273 64.2427 89.292 63.089 89.292C61.9353 89.292 61 90.2273 61 91.381C61 92.5347 61.9353 93.47 63.089 93.47Z" fill="#62626C"/>
<path d="M42.089 4.17798C43.2427 4.17798 44.178 3.24271 44.178 2.08899C44.178 0.935266 43.2427 0 42.089 0C40.9353 0 40 0.935266 40 2.08899C40 3.24271 40.9353 4.17798 42.089 4.17798Z" fill="#62626C"/>
<path d="M42.089 22.135C43.2427 22.135 44.178 21.1997 44.178 20.046C44.178 18.8923 43.2427 17.957 42.089 17.957C40.9353 17.957 40 18.8923 40 20.046C40 21.1997 40.9353 22.135 42.089 22.135Z" fill="#62626C"/>
<path d="M42.089 40.0911C43.2427 40.0911 44.178 39.1558 44.178 38.0021C44.178 36.8484 43.2427 35.9131 42.089 35.9131C40.9353 35.9131 40 36.8484 40 38.0021C40 39.1558 40.9353 40.0911 42.089 40.0911Z" fill="#62626C"/>
<path d="M42.089 58.0471C43.2427 58.0471 44.178 57.1119 44.178 55.9581C44.178 54.8044 43.2427 53.8691 42.089 53.8691C40.9353 53.8691 40 54.8044 40 55.9581C40 57.1119 40.9353 58.0471 42.089 58.0471Z" fill="#62626C"/>
<path d="M42.089 75.513C43.2427 75.513 44.178 74.5777 44.178 73.424C44.178 72.2702 43.2427 71.335 42.089 71.335C40.9353 71.335 40 72.2702 40 73.424C40 74.5777 40.9353 75.513 42.089 75.513Z" fill="#62626C"/>
<path d="M42.089 93.47C43.2427 93.47 44.178 92.5347 44.178 91.381C44.178 90.2273 43.2427 89.292 42.089 89.292C40.9353 89.292 40 90.2273 40 91.381C40 92.5347 40.9353 93.47 42.089 93.47Z" fill="#62626C"/>
</svg>
