<svg version="1.2" xmlns="http://www.w3.org/2000/svg" viewBox="0 0 24 24" width="24" height="24"><defs><linearGradient id="P" gradientUnits="userSpaceOnUse"/><linearGradient id="g1" x1="4.4" y1="3.5" x2="12" y2="23.2" href="#P"><stop stop-color="#ff7979"/><stop offset="1" stop-color="#f94646"/></linearGradient></defs><style>.a{fill:url(#g1)}.b{fill:#fff}</style><path class="a" d="m17.6 0.8h-11.2c-3.1 0-5.6 2.5-5.6 5.6v11.2c0 3.1 2.5 5.6 5.6 5.6h11.2c3.1 0 5.6-2.5 5.6-5.6v-11.2c0-3.1-2.5-5.6-5.6-5.6z"/><path class="b" d="m8.6 15.1q-0.1 0-0.3-0.1-0.1 0-0.3-0.2l-2.2-2.2q-0.1-0.1-0.2-0.3-0.1-0.1-0.1-0.3 0-0.2 0.1-0.3 0.1-0.2 0.2-0.3l2.2-2.2q0.3-0.3 0.6-0.3 0.4 0 0.6 0.3 0.3 0.2 0.3 0.6 0 0.3-0.3 0.5l-1.6 1.7 1.6 1.6q0.2 0.2 0.3 0.5 0 0.2-0.1 0.5-0.1 0.2-0.3 0.3-0.2 0.2-0.5 0.2z"/><path class="b" d="m15.4 15.1q-0.3 0-0.5-0.2-0.2-0.1-0.3-0.3-0.1-0.3-0.1-0.5 0.1-0.3 0.3-0.5l1.6-1.6-1.6-1.7q-0.1-0.1-0.2-0.2-0.1-0.2-0.1-0.3 0-0.2 0.1-0.4 0.1-0.1 0.2-0.2 0.2-0.3 0.6-0.3 0.1 0 0.3 0.1 0.1 0 0.3 0.2l2.2 2.2q0.1 0.1 0.2 0.3 0.1 0.1 0.1 0.3 0 0.2-0.1 0.3-0.1 0.2-0.2 0.3l-2.2 2.2q-0.2 0.2-0.3 0.2-0.2 0.1-0.3 0.1z"/><path class="b" d="m10.9 16.8q-0.1 0-0.3-0.1-0.3-0.1-0.5-0.4-0.1-0.3 0-0.6l2.2-7.9q0.1-0.1 0.2-0.3 0.1-0.1 0.2-0.2 0.2-0.1 0.3-0.1 0.2 0 0.4 0 0.1 0.1 0.3 0.2 0.1 0.1 0.2 0.3 0 0.1 0.1 0.3 0 0.1-0.1 0.3l-2.2 7.9q-0.1 0.2-0.3 0.4-0.2 0.2-0.5 0.2z"/></svg>