<svg width="44" height="44" viewBox="0 0 44 44" fill="none" xmlns="http://www.w3.org/2000/svg">
<circle cx="22" cy="22" r="22" fill="#FBECEC"/>
<path d="M28.5 9H15.5C11.9101 9 9 11.9101 9 15.5V28.5C9 32.0898 11.9101 35 15.5 35H28.5C32.0898 35 35 32.0898 35 28.5V15.5C35 11.9101 32.0898 9 28.5 9Z" fill="url(#paint0_linear_1688_8488)"/>
<path d="M18.1008 25.5746C17.9728 25.5747 17.846 25.5495 17.7276 25.5006C17.6093 25.4516 17.5018 25.3798 17.4112 25.2893L14.8112 22.6893C14.7206 22.5987 14.6487 22.4912 14.5997 22.3729C14.5506 22.2546 14.5254 22.1277 14.5254 21.9996C14.5254 21.8715 14.5506 21.7447 14.5997 21.6264C14.6487 21.508 14.7206 21.4005 14.8112 21.31L17.4112 18.71C17.5941 18.5271 17.8422 18.4243 18.1008 18.4243C18.3595 18.4243 18.6076 18.5271 18.7905 18.71C18.9734 18.8929 19.0761 19.141 19.0761 19.3996C19.0761 19.6583 18.9734 19.9064 18.7905 20.0893L16.8795 21.9996L18.7905 23.91C18.9269 24.0463 19.0199 24.2201 19.0575 24.4093C19.0952 24.5985 19.0759 24.7946 19.002 24.9728C18.9282 25.151 18.8032 25.3033 18.6427 25.4105C18.4823 25.5176 18.2937 25.5747 18.1008 25.5746Z" fill="white"/>
<path d="M25.8993 25.5746C25.7064 25.5747 25.5178 25.5176 25.3574 25.4105C25.1969 25.3033 25.0719 25.151 24.9981 24.9728C24.9242 24.7946 24.9049 24.5985 24.9426 24.4093C24.9802 24.2201 25.0732 24.0463 25.2096 23.91L27.1206 21.9996L25.2096 20.0893C25.1191 19.9987 25.0472 19.8912 24.9982 19.7729C24.9492 19.6545 24.924 19.5277 24.924 19.3996C24.924 19.2715 24.9492 19.1447 24.9982 19.0264C25.0472 18.9081 25.1191 18.8005 25.2096 18.71C25.3925 18.5271 25.6406 18.4243 25.8993 18.4243C26.0274 18.4243 26.1542 18.4495 26.2725 18.4986C26.3908 18.5476 26.4984 18.6194 26.5889 18.71L29.1889 21.31C29.2795 21.4005 29.3514 21.508 29.4004 21.6264C29.4495 21.7447 29.4747 21.8715 29.4747 21.9996C29.4747 22.1277 29.4495 22.2546 29.4004 22.3729C29.3514 22.4912 29.2795 22.5987 29.1889 22.6893L26.5889 25.2893C26.4983 25.3798 26.3908 25.4516 26.2725 25.5006C26.1541 25.5495 26.0273 25.5747 25.8993 25.5746Z" fill="white"/>
<path d="M20.7 27.5247C20.6092 27.5246 20.5189 27.5119 20.4316 27.487C20.183 27.416 19.9729 27.2491 19.8473 27.0231C19.7218 26.7971 19.6911 26.5305 19.7621 26.2819L22.3621 17.1819C22.3952 17.0566 22.453 16.9391 22.5321 16.8363C22.6112 16.7335 22.71 16.6476 22.8227 16.5835C22.9355 16.5194 23.0598 16.4784 23.1886 16.463C23.3173 16.4476 23.4479 16.4579 23.5726 16.4936C23.6972 16.5292 23.8136 16.5893 23.9147 16.6705C24.0159 16.7516 24.0998 16.8521 24.1617 16.9661C24.2235 17.08 24.262 17.2052 24.2749 17.3342C24.2878 17.4633 24.2748 17.5936 24.2367 17.7175L21.6367 26.8175C21.5785 27.0211 21.4557 27.2002 21.2867 27.3278C21.1177 27.4554 20.9118 27.5245 20.7 27.5247V27.5247Z" fill="white"/>
<defs>
<linearGradient id="paint0_linear_1688_8488" x1="13.16" y1="12.12" x2="22" y2="35" gradientUnits="userSpaceOnUse">
<stop stop-color="#FF7979"/>
<stop offset="1" stop-color="#F94646"/>
</linearGradient>
</defs>
</svg>
