<svg width="44" height="44" viewBox="0 0 44 44" fill="none" xmlns="http://www.w3.org/2000/svg">
<circle cx="22" cy="22" r="22" fill="#FF9627" fill-opacity="0.1"/>
<path d="M24.8203 17.6501C24.34 17.176 23.5234 17.5174 23.5234 18.1922V20.8574L22 22.3809L20.4766 20.8574V18.1922C20.4766 17.5172 19.6599 17.176 19.1797 17.6501C18.1156 18.7007 17.4297 20.1622 17.4297 21.6191C17.4297 23.3065 18.3545 24.7638 19.7148 25.5556V32.7148H24.2851V25.5556C25.6455 24.7639 26.5703 23.3065 26.5703 21.6191C26.5703 20.1622 25.8844 18.7007 24.8203 17.6501Z" fill="#FFA53A"/>
<path d="M34.5251 22.9767L33.4512 22.5489C33.4691 22.1859 33.4691 21.8184 33.4512 21.451L34.5251 21.0233C34.8806 20.8782 35.0725 20.4914 34.9744 20.1202L34.1653 17.1767C34.0657 16.8055 33.6997 16.5608 33.3248 16.6196L32.1478 16.7751C31.9796 16.4492 31.7967 16.1316 31.5988 15.8244L32.2965 14.9273C32.533 14.6238 32.5063 14.1923 32.234 13.9209L30.0798 11.7158C29.809 11.4443 29.3776 11.4161 29.0741 11.6526L28.18 12.3466C27.872 12.148 27.5522 11.9635 27.2248 11.7955L27.3796 10.6752C27.4331 10.2951 27.1936 9.93504 26.8231 9.83536L23.8804 9.02718C23.5026 8.92455 23.1217 9.12092 22.9774 9.47573L22.5489 10.548C22.1814 10.5294 21.8155 10.5309 21.451 10.548L21.0225 9.47573C20.8782 9.12092 20.4973 8.92602 20.1194 9.02718L17.1768 9.83536C16.8063 9.93428 16.5683 10.2943 16.6204 10.6752L16.7751 11.8014C16.4493 11.9688 16.1309 12.1525 15.8229 12.3504L14.9258 11.6534C14.6238 11.4191 14.1909 11.4428 13.9201 11.7158L11.7659 13.9209C11.4936 14.1924 11.4161 14.6238 11.6526 14.9273L12.3459 15.8192C12.1481 16.1286 11.9636 16.4477 11.7954 16.7743L10.6752 16.6196C10.2988 16.563 9.93426 16.8063 9.83457 17.1767L9.02558 20.1202C8.92737 20.4914 9.11932 20.8782 9.47489 21.0233L10.5488 21.451C10.5309 21.814 10.5309 22.1815 10.5488 22.5489L9.47489 22.9767C9.11932 23.1217 8.92742 23.5085 9.02558 23.8797L9.83463 26.8232C9.93431 27.1944 10.2973 27.4413 10.6752 27.3803L11.8014 27.2248C11.9696 27.5507 12.2033 27.9191 12.4012 28.2263L11.7035 29.1234C11.4669 29.4269 11.4937 29.8584 11.7659 30.1298L13.9202 32.2841C14.1879 32.5556 14.6194 32.5831 14.9259 32.3473L15.82 31.6533C16.1279 31.8519 16.4478 32.0364 16.7751 32.2044L16.6204 33.3247C16.5668 33.7048 16.8064 34.0649 17.1768 34.1645L20.1195 34.9735C20.4959 35.0739 20.8768 34.8805 21.0226 34.5249L21.4511 33.4519C21.8185 33.4698 22.1845 33.4698 22.549 33.4519L22.9775 34.5249C23.1219 34.8796 23.5075 35.073 23.8805 34.9735L26.8233 34.1645C27.1937 34.0656 27.4317 33.7056 27.3797 33.3247L27.2249 32.1985C27.5507 32.0311 27.8691 31.8474 28.1771 31.6495L29.0742 32.3465C29.3777 32.5831 29.8091 32.5563 30.0799 32.2841L32.2341 30.1298C32.5064 29.8583 32.5332 29.4269 32.2966 29.1234L31.6033 28.2315C31.8012 27.9221 31.9857 27.5522 32.1538 27.2256L33.3249 27.3803C33.7027 27.4436 34.0658 27.1944 34.1654 26.8232L34.9745 23.8797C35.0725 23.5085 34.8806 23.1217 34.5251 22.9767V22.9767ZM22 30.4296C17.3805 30.4296 13.6211 26.6201 13.6211 22C13.6211 17.3799 17.3805 13.6211 22 13.6211C26.6194 13.6211 30.3788 17.3799 30.3788 22C30.3788 26.6201 26.6194 30.4296 22 30.4296Z" fill="url(#paint0_linear_1688_8489)"/>
<defs>
<linearGradient id="paint0_linear_1688_8489" x1="22" y1="34.9999" x2="22" y2="9.00001" gradientUnits="userSpaceOnUse">
<stop stop-color="#FF993A"/>
<stop offset="1" stop-color="#FF9414"/>
</linearGradient>
</defs>
</svg>
