<svg width="44" height="44" viewBox="0 0 44 44" fill="none" xmlns="http://www.w3.org/2000/svg">
<circle cx="22" cy="22" r="22" fill="#DE4D59" fill-opacity="0.1"/>
<path d="M19.1162 25.7617H25.4246C26.7291 25.7617 27.7903 24.7011 27.7903 23.3974V12.3643C27.7903 11.0606 26.7291 10 25.4246 10H19.1162C17.8117 10 16.7505 11.0605 16.7505 12.3643V23.3974C16.7505 24.7012 17.8117 25.7617 19.1162 25.7617ZM22.2705 21.0332C22.706 21.0332 23.0591 21.386 23.0591 21.8213C23.0591 22.2565 22.706 22.6094 22.2705 22.6094C21.835 22.6094 21.482 22.2565 21.482 21.8213C21.482 21.386 21.835 21.0332 22.2705 21.0332V21.0332ZM35.3981 30.8232C35.2503 30.6144 35.0103 30.4902 34.7543 30.4902H9.78881C9.53261 30.4902 9.29232 30.6146 9.14448 30.8237C8.99665 31.0328 8.95974 31.3006 9.04543 31.542C9.4797 32.7648 10.649 33.6426 12.0191 33.6426H32.5216C33.3718 33.6426 34.1557 33.3178 34.7456 32.7129C35.0882 32.3801 35.3427 31.9806 35.498 31.5409C35.5833 31.2996 35.546 31.032 35.3981 30.8232V30.8232ZM34.0988 15.5166C34.0988 14.2129 33.0376 13.1524 31.7332 13.1524H29.3675V23.3974C29.3675 25.5701 27.5994 27.3378 25.4247 27.3378H19.1163C16.9416 27.3378 15.1735 25.57 15.1735 23.3974V13.1524H12.8079C11.5034 13.1524 10.4422 14.2129 10.4422 15.5166V28.9141H34.0989V15.5166H34.0988Z" fill="url(#paint0_linear_1688_8490)"/>
<defs>
<linearGradient id="paint0_linear_1688_8490" x1="22.2715" y1="10" x2="22.2715" y2="33.6426" gradientUnits="userSpaceOnUse">
<stop stop-color="#FC6773"/>
<stop offset="1" stop-color="#DE4D59"/>
</linearGradient>
</defs>
</svg>
