<svg width="15" height="33" viewBox="0 0 15 33" fill="none" xmlns="http://www.w3.org/2000/svg">
<path d="M11.5117 31.9851L11.8296 26.7127L12.7075 25.2213C12.7075 25.2213 10.7095 26.0348 7.3646 26.0348C4.0197 26.0348 2.052 25.2364 2.052 25.2364L3.0358 26.8633L3.3839 31.9851C3.3839 32.5343 5.2033 32.9793 7.4478 32.9793C9.6922 32.9793 11.5117 32.5343 11.5117 31.9851ZM10.5089 7.36371L11.1762 4.73859L14.8715 0.868608L13.8975 0.0429688L9.9853 4.16546L9.2105 7.30181C8.6274 7.28231 8.044 7.27271 7.4605 7.27281C3.3402 7.27281 0 7.74021 0 8.31661C0 8.89301 3.3402 9.36031 7.4605 9.36031C11.5808 9.36031 14.9209 8.89301 14.9209 8.31661C14.9209 7.89211 13.1094 7.52681 10.5089 7.36371Z" fill="#D34A47"/>
<path d="M10.1212 8.83429C10.1212 8.83429 9.9767 8.86649 9.5516 8.86829C9.1264 8.87009 8.8244 8.86559 8.7042 8.75649C8.6718 8.72729 8.6541 8.66909 8.6543 8.62979C8.6547 8.55489 8.7081 8.51069 8.7762 8.48309L8.8405 8.58359C8.8125 8.59319 8.7966 8.60459 8.7965 8.61669C8.7963 8.67359 9.2313 8.71259 9.564 8.70839C9.8968 8.70429 10.2989 8.67699 10.2993 8.62089C10.2993 8.60399 10.2689 8.58799 10.216 8.57539L10.28 8.47559C10.3663 8.50219 10.4415 8.55369 10.4414 8.64279C10.4406 8.79429 10.2469 8.81729 10.1212 8.83429Z" fill="white"/>
<path d="M14.8647 0.876093C14.9576 0.769283 14.8166 0.496073 14.5498 0.265943C14.2828 0.0359335 13.9911 -0.0639968 13.898 0.0428132C13.805 0.149633 13.9461 0.422843 14.2131 0.652853C14.4799 0.882913 14.7717 0.982963 14.8647 0.876093ZM11.3345 19.1066C11.2469 18.268 13.1775 17.0534 12.6821 17.0145C11.6154 17.0752 11.0846 18.2586 10.5479 19.498C10.3513 19.9522 9.67843 21.8892 9.23703 21.6507C8.79583 21.4124 9.80903 19.8196 10.093 18.8737C9.76534 19.1128 8.56363 20.0421 8.25393 19.1718C7.75593 19.5927 6.69193 19.8208 6.81203 18.7151C6.54713 19.1822 5.95253 19.8342 5.23893 19.5632C4.30173 19.2075 5.78193 16.2363 6.15003 16.3862C6.51813 16.536 6.07574 17.2129 5.95984 17.4757C5.70504 18.0542 5.41073 18.7813 5.60733 18.9302C5.94423 19.1852 6.86103 17.9654 6.88143 17.9386C7.05283 17.7131 7.54134 16.2381 7.93513 16.4075C8.32883 16.5769 6.95303 18.5244 7.46743 18.9109C7.57123 18.9889 7.99564 18.8628 8.25393 18.5847C8.42093 18.4049 8.36353 18.0065 8.92043 16.6846C9.47733 15.3628 9.97373 13.7166 10.3556 13.8421C10.7375 13.9674 10.4227 14.8123 10.2857 15.1272C9.64273 16.6055 8.53094 19.0477 9.05523 18.8628C9.57963 18.678 9.85263 18.6671 10.3661 18.0691C10.8795 17.4711 10.8559 16.486 11.1981 16.5069C11.5404 16.5279 11.483 16.8438 11.4 17.0843C11.7368 16.7006 12.9966 15.8927 13.3008 16.6929C13.6611 17.6403 11.4983 19.0087 12.0376 18.9389C12.5633 18.8709 13.4151 18.334 13.7787 17.8458L14.7798 8.88881C14.7798 8.88881 13.7725 9.71841 7.36413 9.71841C0.955734 9.71841 0.0527344 8.90601 0.0527344 8.90601L0.904934 17.0816C1.35723 15.8021 2.43143 13.2138 4.12463 13.3007C4.89493 13.3402 5.92313 14.8163 5.04233 14.8663C4.66953 14.8874 4.63174 14.1295 4.19024 14.0182C3.87164 13.9379 3.42813 14.1957 3.14153 14.4749C2.56993 15.0317 1.34043 17.2286 1.50293 18.3238C1.70983 19.7201 3.43883 17.8386 3.73143 17.28C3.93743 16.8865 4.07663 15.7207 4.52724 15.843C4.97793 15.9653 4.48794 17.1685 4.16133 18.2322C3.79433 19.4267 3.60143 20.6867 3.14153 20.5418C2.68153 20.3969 3.43084 18.8549 3.40364 18.5847C2.97133 18.9817 2.17483 19.9868 1.15593 19.4893L1.68523 24.5663C1.68523 24.5663 3.09193 25.6725 7.32943 25.6725C11.5669 25.6725 13.0257 24.5836 13.0257 24.5836L13.6829 18.7032C13.1452 19.2243 11.4434 20.1497 11.3345 19.1066Z" fill="#D34A47"/>
</svg>
