<svg width="26" height="26" viewBox="0 0 26 26" fill="none" xmlns="http://www.w3.org/2000/svg">
<path d="M15.8203 8.65014C15.34 8.17604 14.5234 8.51744 14.5234 9.19224V11.8574L13 13.3809L11.4766 11.8574V9.19224C11.4766 8.51724 10.6599 8.17604 10.1797 8.65014C9.11559 9.70074 8.42969 11.1622 8.42969 12.6191C8.42969 14.3065 9.35449 15.7638 10.7148 16.5556V23.7148H15.2851V16.5556C16.6455 15.7639 17.5703 14.3065 17.5703 12.6191C17.5703 11.1622 16.8844 9.70074 15.8203 8.65014Z" fill="#FFA53A"/>
<path d="M25.5251 13.9767L24.4512 13.5489C24.4691 13.1859 24.4691 12.8184 24.4512 12.451L25.5251 12.0233C25.8806 11.8782 26.0725 11.4914 25.9744 11.1202L25.1653 8.1767C25.0657 7.8055 24.6997 7.5608 24.3248 7.6196L23.1478 7.7751C22.9796 7.4492 22.7967 7.1316 22.5988 6.8244L23.2965 5.9273C23.533 5.6238 23.5063 5.1923 23.234 4.9209L21.0798 2.7158C20.809 2.4443 20.3776 2.4161 20.0741 2.6526L19.18 3.3466C18.872 3.148 18.5522 2.9635 18.2248 2.7955L18.3796 1.6752C18.4331 1.2951 18.1936 0.935038 17.8231 0.835358L14.8804 0.0271777C14.5026 -0.0754523 14.1217 0.120918 13.9774 0.475728L13.5489 1.548C13.1814 1.5294 12.8155 1.5309 12.451 1.548L12.0225 0.475728C11.8782 0.120918 11.4973 -0.0739823 11.1194 0.0271777L8.1768 0.835358C7.8063 0.934278 7.5683 1.2943 7.6204 1.6752L7.7751 2.8014C7.4493 2.9688 7.1309 3.1525 6.8229 3.3504L5.9258 2.6534C5.6238 2.4191 5.1909 2.4428 4.9201 2.7158L2.7659 4.9209C2.4936 5.1924 2.4161 5.6238 2.6526 5.9273L3.3459 6.8192C3.1481 7.1286 2.9636 7.4477 2.7954 7.7743L1.6752 7.6196C1.2988 7.563 0.93426 7.8063 0.83457 8.1767L0.0255808 11.1202C-0.0726292 11.4914 0.11932 11.8782 0.47489 12.0233L1.5488 12.451C1.5309 12.814 1.5309 13.1815 1.5488 13.5489L0.47489 13.9767C0.11932 14.1217 -0.0725792 14.5085 0.0255808 14.8797L0.83463 17.8232C0.93431 18.1944 1.2973 18.4413 1.6752 18.3803L2.8014 18.2248C2.9696 18.5507 3.2033 18.9191 3.4012 19.2263L2.7035 20.1234C2.4669 20.4269 2.4937 20.8584 2.7659 21.1298L4.9202 23.2841C5.1879 23.5556 5.6194 23.5831 5.9259 23.3473L6.82 22.6533C7.1279 22.8519 7.4478 23.0364 7.7751 23.2044L7.6204 24.3247C7.5668 24.7048 7.8064 25.0649 8.1768 25.1645L11.1195 25.9735C11.4959 26.0739 11.8768 25.8805 12.0226 25.5249L12.4511 24.4519C12.8185 24.4698 13.1845 24.4698 13.549 24.4519L13.9775 25.5249C14.1219 25.8796 14.5075 26.073 14.8805 25.9735L17.8233 25.1645C18.1937 25.0656 18.4317 24.7056 18.3797 24.3247L18.2249 23.1985C18.5507 23.0311 18.8691 22.8474 19.1771 22.6495L20.0742 23.3465C20.3777 23.5831 20.8091 23.5563 21.0799 23.2841L23.2341 21.1298C23.5064 20.8583 23.5332 20.4269 23.2966 20.1234L22.6033 19.2315C22.8012 18.9221 22.9857 18.5522 23.1538 18.2256L24.3249 18.3803C24.7027 18.4436 25.0658 18.1944 25.1654 17.8232L25.9745 14.8797C26.0725 14.5085 25.8806 14.1217 25.5251 13.9767ZM13 21.4296C8.3805 21.4296 4.6211 17.6201 4.6211 13C4.6211 8.3799 8.3805 4.6211 13 4.6211C17.6194 4.6211 21.3788 8.3799 21.3788 13C21.3788 17.6201 17.6194 21.4296 13 21.4296Z" fill="url(#paint0_linear_131_1391)"/>
<defs>
<linearGradient id="paint0_linear_131_1391" x1="13" y1="25.9999" x2="13" y2="6.19886e-06" gradientUnits="userSpaceOnUse">
<stop stop-color="#FF993A"/>
<stop offset="1" stop-color="#FF9414"/>
</linearGradient>
</defs>
</svg>
