<svg width="27" height="24" viewBox="0 0 27 24" fill="none" xmlns="http://www.w3.org/2000/svg">
<path d="M10.1162 15.7617H16.4246C17.7291 15.7617 18.7903 14.7011 18.7903 13.3974V2.3643C18.7903 1.0606 17.7291 0 16.4246 0H10.1162C8.8117 0 7.7505 1.0605 7.7505 2.3643V13.3974C7.7505 14.7012 8.8117 15.7617 10.1162 15.7617ZM13.2705 11.0332C13.706 11.0332 14.0591 11.386 14.0591 11.8213C14.0591 12.2565 13.706 12.6094 13.2705 12.6094C12.835 12.6094 12.482 12.2565 12.482 11.8213C12.482 11.386 12.835 11.0332 13.2705 11.0332ZM26.3981 20.8232C26.2503 20.6144 26.0103 20.4902 25.7543 20.4902H0.78881C0.53261 20.4902 0.29232 20.6146 0.14448 20.8237C-0.00334981 21.0328 -0.0402594 21.3006 0.0454306 21.542C0.479701 22.7648 1.649 23.6426 3.0191 23.6426H23.5216C24.3718 23.6426 25.1557 23.3178 25.7456 22.7129C26.0882 22.3801 26.3427 21.9806 26.498 21.5409C26.5833 21.2996 26.546 21.032 26.3981 20.8232ZM25.0988 5.5166C25.0988 4.2129 24.0376 3.1524 22.7332 3.1524H20.3675V13.3974C20.3675 15.5701 18.5994 17.3378 16.4247 17.3378H10.1163C7.9416 17.3378 6.1735 15.57 6.1735 13.3974V3.1524H3.8079C2.5034 3.1524 1.4422 4.2129 1.4422 5.5166V18.9141H25.0989L25.0988 5.5166Z" fill="url(#paint0_linear_131_1403)"/>
<defs>
<linearGradient id="paint0_linear_131_1403" x1="13.2715" y1="0" x2="13.2715" y2="23.6426" gradientUnits="userSpaceOnUse">
<stop stop-color="#FC6773"/>
<stop offset="1" stop-color="#DE4D59"/>
</linearGradient>
</defs>
</svg>
