<svg width="44" height="44" viewBox="0 0 44 44" fill="none" xmlns="http://www.w3.org/2000/svg">
<circle cx="22" cy="22" r="22" fill="#D34A47" fill-opacity="0.19"/>
<g clip-path="url(#clip0_1689_8523)">
<path d="M26.5566 36.9939L26.8745 31.7215L27.7524 30.2301C27.7524 30.2301 25.7544 31.0436 22.4095 31.0436C19.0646 31.0436 17.0969 30.2452 17.0969 30.2452L18.0807 31.8721L18.4288 36.9939C18.4288 37.5431 20.2482 37.9881 22.4927 37.9881C24.7371 37.9881 26.5566 37.5431 26.5566 36.9939M25.5538 12.3725L26.2211 9.74738L29.9164 5.8774L28.9424 5.05176L25.0302 9.17425L24.2554 12.3106C23.6723 12.2911 23.0889 12.2815 22.5054 12.2816C18.3851 12.2816 15.0449 12.749 15.0449 13.3254C15.0449 13.9018 18.3851 14.3691 22.5054 14.3691C26.6257 14.3691 29.9658 13.9018 29.9658 13.3254C29.9658 12.9009 28.1543 12.5356 25.5538 12.3725" fill="#D34A47"/>
<path d="M25.1661 13.8431C25.1661 13.8431 25.0216 13.8753 24.5965 13.8771C24.1713 13.8789 23.8693 13.8744 23.7491 13.7653C23.7167 13.7361 23.699 13.6779 23.6992 13.6386C23.6996 13.5637 23.753 13.5195 23.8211 13.4919L23.8854 13.5924C23.8574 13.602 23.8415 13.6134 23.8414 13.6255C23.8412 13.6824 24.2762 13.7214 24.6089 13.7172C24.9417 13.7131 25.3438 13.6858 25.3442 13.6297C25.3442 13.6128 25.3138 13.5968 25.2609 13.5842L25.3249 13.4844C25.4112 13.511 25.4864 13.5625 25.4863 13.6516C25.4855 13.8031 25.2918 13.8261 25.1661 13.8431" fill="white"/>
<path d="M29.9097 5.88488C30.0026 5.77807 29.8616 5.50486 29.5948 5.27473C29.3278 5.04472 29.0361 4.94479 28.943 5.0516C28.85 5.15842 28.9911 5.43163 29.2581 5.66164C29.5249 5.8917 29.8167 5.99175 29.9097 5.88488ZM26.3795 24.1154C26.2919 23.2768 28.2225 22.0622 27.7271 22.0233C26.6604 22.084 26.1296 23.2674 25.5929 24.5068C25.3963 24.961 24.7234 26.898 24.282 26.6595C23.8408 26.4212 24.854 24.8284 25.138 23.8825C24.8103 24.1216 23.6086 25.0509 23.2989 24.1806C22.8009 24.6015 21.7369 24.8296 21.857 23.7239C21.5921 24.191 20.9975 24.843 20.2839 24.572C19.3467 24.2163 20.8269 21.2451 21.195 21.395C21.5631 21.5448 21.1207 22.2217 21.0048 22.4845C20.75 23.063 20.4557 23.7901 20.6523 23.939C20.9892 24.194 21.906 22.9742 21.9264 22.9474C22.0978 22.7219 22.5863 21.2469 22.9801 21.4163C23.3738 21.5857 21.998 23.5332 22.5124 23.9197C22.6162 23.9977 23.0406 23.8716 23.2989 23.5935C23.4659 23.4137 23.4085 23.0153 23.9654 21.6934C24.5223 20.3716 25.0187 18.7254 25.4006 18.8509C25.7825 18.9762 25.4677 19.8211 25.3307 20.136C24.6877 21.6143 23.5759 24.0565 24.1002 23.8716C24.6246 23.6868 24.8976 23.6759 25.4111 23.0779C25.9245 22.4799 25.9009 21.4948 26.2431 21.5157C26.5854 21.5367 26.528 21.8526 26.445 22.0931C26.7818 21.7094 28.0416 20.9015 28.3458 21.7017C28.7061 22.6491 26.5433 24.0175 27.0826 23.9477C27.6083 23.8797 28.4601 23.3428 28.8237 22.8546L29.8248 13.8976C29.8248 13.8976 28.8175 14.7272 22.4091 14.7272C16.0007 14.7272 15.0977 13.9148 15.0977 13.9148L15.9499 22.0904C16.4022 20.8109 17.4764 18.2226 19.1696 18.3095C19.9399 18.349 20.9681 19.8251 20.0873 19.8751C19.7145 19.8962 19.6767 19.1383 19.2352 19.027C18.9166 18.9467 18.4731 19.2045 18.1865 19.4837C17.6149 20.0405 16.3854 22.2374 16.5479 23.3326C16.7548 24.7289 18.4838 22.8474 18.7764 22.2888C18.9824 21.8953 19.1216 20.7295 19.5722 20.8518C20.0229 20.9741 19.5329 22.1773 19.2063 23.241C18.8393 24.4355 18.6464 25.6955 18.1865 25.5506C17.7265 25.4057 18.4758 23.8637 18.4486 23.5935C18.0163 23.9905 17.2198 24.9956 16.2009 24.4981L16.7302 29.5751C16.7302 29.5751 18.1369 30.6813 22.3744 30.6813C26.6119 30.6813 28.0707 29.5924 28.0707 29.5924L28.7279 23.712C28.1902 24.2331 26.4884 25.1585 26.3795 24.1154" fill="#D34A47"/>
</g>
<defs>
<clipPath id="clip0_1689_8523">
<rect width="15" height="33" fill="white" transform="translate(15 5)"/>
</clipPath>
</defs>
</svg>
