<svg width="44" height="44" viewBox="0 0 44 44" fill="none" xmlns="http://www.w3.org/2000/svg">
<circle cx="22" cy="22" r="22" fill="#60B158" fill-opacity="0.15"/>
<path d="M13.3236 18.1636C13.2214 18.0984 13.1377 18.0069 13.081 17.8983C13.0243 17.7897 12.9965 17.6677 13.0004 17.5447C13.0043 17.4217 13.0397 17.3018 13.1032 17.1972C13.1667 17.0925 13.256 17.0068 13.3622 16.9485L22.1706 12.0815C22.2697 12.028 22.38 12 22.4921 12C22.6041 12 22.7145 12.028 22.8135 12.0815L31.6413 16.9485C31.7471 17.0074 31.8359 17.0936 31.8988 17.1986C31.9617 17.3036 31.9965 17.4236 31.9997 17.5466C32.003 17.6696 31.9746 17.7914 31.9173 17.8996C31.86 18.0079 31.7759 18.0989 31.6734 18.1636L22.8586 23.6743C22.7502 23.7423 22.6256 23.7783 22.4985 23.7783C22.3714 23.7783 22.2468 23.7423 22.1384 23.6743L13.3236 18.1636ZM31.6413 21.5659L30.1625 20.7449L23.5787 24.8697C23.253 25.0715 22.8794 25.1782 22.4985 25.1782C22.1176 25.1782 21.744 25.0715 21.4183 24.8697L14.8345 20.7449L13.3622 21.5659C13.256 21.6242 13.1667 21.71 13.1032 21.8146C13.0397 21.9193 13.0043 22.0391 13.0004 22.1621C12.9965 22.2852 13.0243 22.4071 13.081 22.5157C13.1377 22.6243 13.2214 22.7158 13.3236 22.781L22.1384 28.2852C22.2468 28.3531 22.3714 28.3891 22.4985 28.3891C22.6256 28.3891 22.7502 28.3531 22.8586 28.2852L31.6734 22.781C31.7759 22.7164 31.86 22.6254 31.9173 22.5171C31.9746 22.4088 32.003 22.2871 31.9997 22.164C31.9965 22.041 31.9617 21.921 31.8988 21.816C31.8359 21.7111 31.7471 21.6248 31.6413 21.5659V21.5659ZM31.6413 26.1637L30.1625 25.3492L23.5787 29.4806C23.2535 29.6838 22.8797 29.7913 22.4985 29.7913C22.1173 29.7913 21.7435 29.6838 21.4183 29.4806L14.8345 25.3623L13.3622 26.1768C13.256 26.2351 13.1667 26.3209 13.1032 26.4255C13.0397 26.5301 13.0043 26.65 13.0004 26.773C12.9965 26.8961 13.0243 27.018 13.081 27.1266C13.1377 27.2352 13.2214 27.3267 13.3236 27.3919L22.1384 32.8961C22.2468 32.964 22.3714 33 22.4985 33C22.6256 33 22.7502 32.964 22.8586 32.8961L31.6734 27.3919C31.7743 27.326 31.8568 27.2346 31.9129 27.1265C31.969 27.0184 31.9968 26.8974 31.9935 26.7751C31.9903 26.6528 31.9562 26.5334 31.8944 26.4286C31.8327 26.3238 31.7455 26.237 31.6413 26.1768V26.1637Z" fill="url(#paint0_linear_1690_44)"/>
<defs>
<linearGradient id="paint0_linear_1690_44" x1="14.4745" y1="28.8829" x2="39.1951" y2="6.46309" gradientUnits="userSpaceOnUse">
<stop offset="0.01" stop-color="#60B158"/>
<stop offset="1" stop-color="#46B7D0"/>
</linearGradient>
</defs>
</svg>
