<svg width="19" height="21" viewBox="0 0 19 21" fill="none" xmlns="http://www.w3.org/2000/svg">
<path d="M0.323561 6.1636C0.221361 6.0984 0.137661 6.0069 0.0809612 5.8983C0.0242612 5.7897 -0.0035395 5.6677 0.000360504 5.5447C0.0042605 5.4217 0.0396609 5.3018 0.103161 5.1972C0.166661 5.0925 0.255961 5.0068 0.362161 4.9485L9.17056 0.0815001C9.26966 0.0280001 9.37996 0 9.49206 0C9.60406 0 9.71446 0.0280001 9.81346 0.0815001L18.6413 4.9485C18.7471 5.0074 18.8359 5.0936 18.8988 5.1986C18.9617 5.3036 18.9965 5.4236 18.9997 5.5466C19.003 5.6696 18.9746 5.7914 18.9173 5.8996C18.86 6.0079 18.7759 6.0989 18.6734 6.1636L9.85856 11.6743C9.75016 11.7423 9.62556 11.7783 9.49846 11.7783C9.37136 11.7783 9.24676 11.7423 9.13836 11.6743L0.323561 6.1636ZM18.6413 9.5659L17.1625 8.7449L10.5787 12.8697C10.253 13.0715 9.87936 13.1782 9.49846 13.1782C9.11756 13.1782 8.74396 13.0715 8.41826 12.8697L1.83446 8.7449L0.362161 9.5659C0.255961 9.6242 0.166661 9.71 0.103161 9.8146C0.0396609 9.9193 0.0042605 10.0391 0.000360504 10.1621C-0.0035395 10.2852 0.0242612 10.4071 0.0809612 10.5157C0.137661 10.6243 0.221361 10.7158 0.323561 10.781L9.13836 16.2852C9.24676 16.3531 9.37136 16.3891 9.49846 16.3891C9.62556 16.3891 9.75016 16.3531 9.85856 16.2852L18.6734 10.781C18.7759 10.7164 18.86 10.6254 18.9173 10.5171C18.9746 10.4088 19.003 10.2871 18.9997 10.164C18.9965 10.041 18.9617 9.921 18.8988 9.816C18.8359 9.7111 18.7471 9.6248 18.6413 9.5659ZM18.6413 14.1637L17.1625 13.3492L10.5787 17.4806C10.2535 17.6838 9.87966 17.7913 9.49846 17.7913C9.11726 17.7913 8.74346 17.6838 8.41826 17.4806L1.83446 13.3623L0.362161 14.1768C0.255961 14.2351 0.166661 14.3209 0.103161 14.4255C0.0396609 14.5301 0.0042605 14.65 0.000360504 14.773C-0.0035395 14.8961 0.0242612 15.018 0.0809612 15.1266C0.137661 15.2352 0.221361 15.3267 0.323561 15.3919L9.13836 20.8961C9.24676 20.964 9.37136 21 9.49846 21C9.62556 21 9.75016 20.964 9.85856 20.8961L18.6734 15.3919C18.7743 15.326 18.8568 15.2346 18.9129 15.1265C18.969 15.0184 18.9968 14.8974 18.9935 14.7751C18.9903 14.6528 18.9562 14.5334 18.8944 14.4286C18.8327 14.3238 18.7455 14.237 18.6413 14.1768V14.1637Z" fill="url(#paint0_linear_131_1413)"/>
<defs>
<linearGradient id="paint0_linear_131_1413" x1="1.47446" y1="16.8829" x2="26.1951" y2="-5.53691" gradientUnits="userSpaceOnUse">
<stop offset="0.01" stop-color="#60B158"/>
<stop offset="1" stop-color="#46B7D0"/>
</linearGradient>
</defs>
</svg>
